<?xml version="1.0" standalone="no"?><!DOCTYPE svg PUBLIC "-//W3C//DTD SVG 1.1//EN" "http://www.w3.org/Graphics/SVG/1.1/DTD/svg11.dtd"><svg t="1753101124037" class="icon" viewBox="0 0 1024 1024" version="1.1" xmlns="http://www.w3.org/2000/svg" p-id="3565" xmlns:xlink="http://www.w3.org/1999/xlink" width="200" height="200"><path d="M861.89 275.07c-34.93 8.7-72.72 11.62-119.22 11.62-34.87 0-37.79 0-165.71-20.39-93.05-14.54-159.96-23.24-238.37-23.24-49.42 0-107.6 5.84-174.48 14.54v87.21a1048.51 1048.51 0 0 1 174.48-14.55c72.66 0 133.7 5.85 223.83 20.39C699 373.9 699 373.9 742.67 373.9s84.33-2.9 119.22-8.7v-90.13z m0 380.84H164.11v130.78h697.78z m0-142.47c-8.76-5.84-20.39-11.62-32-11.62-29.09 0-55.26 23.25-55.26 55.19s23.31 55.26 55.26 55.26c11.62 0 23.25-2.92 32-11.62v-87.21zM263 612.27c29 0 55.2-23.24 55.2-55.26S295 501.82 263 501.82c-29.09 0-55.25 23.25-55.25 55.19S231 612.27 263 612.27z m174.42 0c29.09 0 55.25-23.24 55.25-55.26s-23.3-55.19-55.25-55.19-55.26 23.25-55.26 55.18 23.25 55.27 55.26 55.27zM338.59 461.1c23.24 0 43.57-20.32 43.57-43.63s-20.33-43.57-43.57-43.57S295 394.22 295 417.47s20.34 43.63 43.59 43.63z m151.16 20.33c23.25 0 43.58-20.32 43.58-43.57s-20.33-43.64-43.58-43.64-43.63 20.39-43.63 43.64 20.39 43.57 43.63 43.57z m252.92 20.39a32 32 0 1 0-31.95-32 32.24 32.24 0 0 0 31.95 32z m-523.3-20.39a32 32 0 1 0-32-31.95 32.23 32.23 0 0 0 32 31.95z m404.08 130.84c34.94 0 64-29.09 64-64s-29-64-64-64-64 29.09-64 64 26.21 64 64 64z" fill="#333333" p-id="3566"></path></svg>