<?xml version="1.0" standalone="no"?><!DOCTYPE svg PUBLIC "-//W3C//DTD SVG 1.1//EN" "http://www.w3.org/Graphics/SVG/1.1/DTD/svg11.dtd"><svg t="1758760600450" class="icon" viewBox="0 0 1024 1024" version="1.1" xmlns="http://www.w3.org/2000/svg" p-id="8585" xmlns:xlink="http://www.w3.org/1999/xlink" width="200" height="200"><path d="M720.871846 529.67239l-129.514308-151.043607a20.793038 20.793038 0 0 0-22.938352-5.813927c-8.103107 3.025442-13.595448 11.179326-13.595447 19.993306V981.174127h-30.229033v-322.105908c0-11.632084-9.359829-21.410821-20.911516-21.410821H431.635355c-11.577076 0-20.915748 9.770274-20.915748 21.410821v322.11014h-30.241727V392.816625c0-8.822443-5.492341-16.972095-13.595447-19.997537-8.107338-3.021211-17.264061-0.70241-23.132996 5.813926l-129.302738 151.047839-21.114624-21.40659L329.726619 353.955562c23.348796-26.276916 56.63289-41.404126 91.537605-41.404126h92.764708c34.908947 0 68.201503 15.131442 91.537605 41.404126l136.394544 154.318701-21.089235 21.398127z m-84.234231-204.333701c-31.261491-35.137442-75.919554-55.384631-122.595989-55.384631H421.268456c-46.680667 0-91.33873 20.247189-122.600221 55.388862L149.088688 494.776137c-7.53187 8.361222-7.307606 21.402358 0.596625 29.310821L200.626987 576.226115c4.282164 4.180611 9.554473 6.49518 15.639208 6.270916 5.686985-0.224264 11.158169-3.016979 15.021426-7.451473l107.375688-125.426788V1002.584948c0 11.86481 9.342904 21.410821 20.898823 21.410821h72.068992c11.560151 0 20.894591-9.550242 20.894591-21.410821v-322.105909h30.245958v322.11014c0 11.860579 9.330209 21.406589 20.911517 21.40659h72.056297c11.577076 0 20.911517-9.550242 20.911517-21.40659V449.614539l107.371457 125.426787c1.946438 2.242635 4.294858 4.053669 6.905624 5.33578a20.89036 20.89036 0 0 0 8.318908 2.115694c5.471184 0.228495 11.352813-2.090305 15.423407-6.270917l50.937443-52.139156c7.933852-7.908463 8.136958-20.949599 0.613551-29.310821l-149.583779-169.433217zM467.750247 42.825873c41.404126 0 75.107128 34.198074 75.107128 76.537336 0 42.36042-33.703001 76.82084-75.107128 76.82084-41.603002 0-75.306003-34.46042-75.306003-76.82084 0.008463-42.339263 33.703001-76.537337 75.306003-76.537336z m0 196.171354c64.342478 0 116.904773-53.764009 116.904773-119.634018C584.65502 53.527052 532.092725 0 467.750247 0 403.208894 0 350.638136 53.518589 350.638136 119.367441c0.004231 66.111198 52.574989 119.629787 117.112111 119.629786z" p-id="8586"></path></svg>