<?xml version="1.0" standalone="no"?><!DOCTYPE svg PUBLIC "-//W3C//DTD SVG 1.1//EN" "http://www.w3.org/Graphics/SVG/1.1/DTD/svg11.dtd"><svg t="1753101228974" class="icon" viewBox="0 0 1024 1024" version="1.1" xmlns="http://www.w3.org/2000/svg" p-id="6692" xmlns:xlink="http://www.w3.org/1999/xlink" width="200" height="200"><path d="M315.81 601.1A142.85 142.85 0 0 1 220 565.25c-57.23-49.64-69.66-91.71-49.65-166.14 4.81-17.24-31.7-57.87-66.18-82.06a29.21 29.21 0 0 1-4.81-4.14 110.7 110.7 0 0 1-34.48-93.78 173.24 173.24 0 0 1 55.83-98.56 175.31 175.31 0 0 1 98.56-55.83A110.7 110.7 0 0 1 313 99.22a18.5 18.5 0 0 1 3.44 4.14c21.32 29.67 63.44 69 86.86 66.19 63.42-8.29 105.48-13.1 161.43 50.34a147.47 147.47 0 0 1 0 192.37 166 166 0 0 1-59.3 41.36 95.24 95.24 0 0 0-31.71 20 107.86 107.86 0 0 0-20 31.7 166.24 166.24 0 0 1-41.36 59.3 145.76 145.76 0 0 1-96.49 36.55zM790.85 959.77a114.58 114.58 0 0 1-80-35.18c-1.37-1.37-2.07-2.77-3.44-4.14-36.55-49-76.54-72.4-91.71-71-63.41 8.28-105.5 13.1-161.42-50.35a147.47 147.47 0 0 1 0-192.37 166.15 166.15 0 0 1 59.3-41.36 95 95 0 0 0 31.7-20 123.67 123.67 0 0 0 20-31.7 166.21 166.21 0 0 1 41.52-59.15 146.68 146.68 0 0 1 192.37 0c57.23 49.64 69.62 91.71 49.64 166.17-4.14 15.87 30.46 57.87 71 86.2 1.37 1.37 3.44 2.77 4.81 4.14a110.7 110.7 0 0 1 34.48 93.78 173.16 173.16 0 0 1-55.86 98.56 179.47 179.47 0 0 1-98.53 55.86 91.66 91.66 0 0 1-13.86 0.76z" fill="#999999" p-id="6693"></path></svg>