<?xml version="1.0" standalone="no"?><!DOCTYPE svg PUBLIC "-//W3C//DTD SVG 1.1//EN" "http://www.w3.org/Graphics/SVG/1.1/DTD/svg11.dtd"><svg t="1758759503211" class="icon" viewBox="0 0 1024 1024" version="1.1" xmlns="http://www.w3.org/2000/svg" p-id="5064" xmlns:xlink="http://www.w3.org/1999/xlink" width="200" height="200"><path d="M449.088 0c14.912 0 30.912 1.088 48 3.2 17.024 3.2 34.048 7.424 51.072 16 17.088 6.4 33.024 16 49.024 27.648 11.712 8.576 22.4 19.2 33.024 32l1.088 1.024c2.112 3.2 3.2 5.376 5.312 7.488 1.088 2.112 3.2 4.288 4.288 6.4l1.024 1.024c1.088 1.088 2.176 3.2 3.2 4.288 12.8 19.2 22.4 39.424 27.712 61.824 0 1.024 1.088 3.2 1.088 4.224 13.824 46.912 20.224 95.872 19.2 144.896a520.896 520.896 0 0 1-8.576 67.136c-3.2 17.024-7.424 35.136-14.912 57.536-1.088 4.224-2.112 8.512-4.288 11.712-3.2 6.4-6.4 13.824-8.512 20.224-4.224 8.512-7.424 17.024-11.712 25.6a71.296 71.296 0 0 1-14.912 20.224c-4.224 4.224-9.6 7.424-13.824 10.624-6.4 5.312-12.8 10.688-19.2 17.024a62.08 62.08 0 0 0-16 37.312c-1.024 10.688-1.024 21.312-1.024 29.824 0 6.4 1.024 11.712 3.2 18.112a51.904 51.904 0 0 0 4.224 11.712c4.288 8.512 9.6 14.912 14.912 21.312 7.488 7.488 18.112 16 32 24.512 12.8 7.488 25.6 13.824 40.448 19.2 14.912 4.224 29.824 9.6 45.824 13.824 16 4.288 30.912 9.6 45.824 13.824 13.824 4.288 27.712 10.688 40.448 19.2a128 128 0 0 1 30.912 27.712c8.512 10.624 14.912 24.512 17.024 41.6 1.088 6.336 1.088 11.648 2.176 16.96 4.224 36.224 5.312 67.2 6.4 91.648-4.288 27.712-9.6 44.8-17.088 50.048-4.224 4.288-13.824 7.488-29.824 10.688a513.28 513.28 0 0 1-57.536 10.624l-74.56 9.6c-27.712 3.2-55.424 6.4-83.072 8.512-16 1.088-30.912 2.176-46.912 3.2-11.712 1.088-22.4 1.088-34.048 2.112h-36.224c-12.8 1.088-25.6 1.088-38.4 1.088-12.8 0-25.6-1.088-38.336-1.088h-36.224c-11.712-1.024-22.4-1.024-34.112-2.112-16-1.024-30.848-2.112-46.848-3.2-27.712-3.2-55.424-5.312-83.072-8.512l-74.624-9.6c-22.4-4.224-41.536-7.424-57.472-10.624-16-4.288-25.6-7.488-29.824-10.688-7.488-5.312-13.888-22.4-17.088-50.048-4.224-27.712-2.112-63.936 7.488-111.872 3.2-17.024 8.512-30.912 17.024-41.536 8.512-10.624 18.112-20.224 30.912-27.712 12.8-8.512 26.624-14.912 40.448-19.2 14.912-4.224 29.824-9.6 45.824-13.824 16-4.224 30.912-8.512 45.824-13.824a203.52 203.52 0 0 0 72.448-43.712 23.232 23.232 0 0 0 4.224-5.312c1.088-2.112 3.2-4.288 4.288-6.4 2.112-3.2 3.2-5.312 5.312-8.512 1.088-4.288 3.2-7.488 4.288-11.712v-2.112c1.024-5.376 2.112-10.688 2.112-16 0-9.6 0-19.2-1.088-29.824a62.08 62.08 0 0 0-16-37.312c-6.4-5.312-12.736-11.712-19.136-17.024l-13.824-10.688a55.68 55.68 0 0 1-14.912-20.224 272.448 272.448 0 0 1-11.712-25.6c-2.176-6.4-5.376-12.8-8.576-20.224-1.024-4.224-3.2-7.424-4.224-11.712a384.256 384.256 0 0 1-14.912-57.536 382.848 382.848 0 0 1-8.512-67.072 475.456 475.456 0 0 1 19.2-144.896c0-1.088 1.024-3.2 1.024-4.288 5.312-22.4 14.912-42.624 27.712-61.76l3.2-4.288 1.024-1.024c1.088-2.176 3.2-4.288 4.288-6.4 2.112-3.2 3.2-5.376 5.312-7.488l1.088-1.024a185.6 185.6 0 0 1 33.024-32c16-11.712 32-21.312 48.96-27.712 16-6.4 33.024-11.712 50.112-13.824 16-2.112 32-3.2 47.936-3.2z m15.168 586.816h-51.52l-4.48 4.48v58.88l4.48 4.416h51.52l4.48-4.48v-58.88l-4.48-4.48z m-14.592-392.512c-102.4-1.664-154.24 51.072-154.24 156.544l4.48 4.48h53.952l4.48-4.608c-1.6-66.048 29.696-96.64 95.744-93.568 43.52 4.736 65.472 27.52 67.008 69.312-3.008 17.6-19.84 42.368-50.24 72.768-41.6 39.936-62.592 76.16-62.592 108.608v31.872l4.48 4.48h51.52l4.48-4.48v-22.08c0-24.576 18.944-54.72 57.344-89.92 41.728-36.608 62.784-70.4 62.784-101.376-3.328-84.352-50.24-128.64-139.2-132.032z" fill="#161729" p-id="5065"></path></svg>