<?xml version="1.0" standalone="no"?><!DOCTYPE svg PUBLIC "-//W3C//DTD SVG 1.1//EN" "http://www.w3.org/Graphics/SVG/1.1/DTD/svg11.dtd"><svg t="1758765373824" class="icon" viewBox="0 0 1024 1024" version="1.1" xmlns="http://www.w3.org/2000/svg" p-id="16549" xmlns:xlink="http://www.w3.org/1999/xlink" width="200" height="200"><path d="M512 1017C233.53 1017 7 790.48 7 512S233.53 7 512 7s505 226.54 505 505-226.51 505-505 505z m0-884.36c-209.18 0-379.34 170.16-379.34 379.34S302.83 891.34 512 891.34 891.35 721.18 891.35 512 721.19 132.66 512 132.66z" fill="#DEDEE1" p-id="16550"></path><path d="M926.92 728.41a62.91 62.91 0 0 1-59-84.61A379.14 379.14 0 0 0 891.35 512c0-209.18-170.16-379.34-379.34-379.34A62.84 62.84 0 1 1 512 7c278.48 0 505 226.54 505 505a504.34 504.34 0 0 1-31.16 175.3 62.88 62.88 0 0 1-58.92 41.11z" fill="#12C39B" p-id="16551"></path><path d="M383.24 481.41q0-12.75-8.07-20.09t-22-7.32a44.21 44.21 0 0 0-19.86 5 66.4 66.4 0 0 0-18.71 14.32v-19.41a54.53 54.53 0 0 1 17.64-12.36q9.89-4.31 23.16-4.32 21.48 0 34.59 11.52c8.7 7.66 13.09 18.05 13.09 31.14q0 17.49-8 30.27t-27.48 26.18q-19.84 13.71-26.54 19.66c-4.46 3.95-7.6 7.75-9.37 11.34a29.88 29.88 0 0 0-2.63 13.2h78.72v17.8h-99.59v-7.87q0-13.69 3.73-23.27a57.49 57.49 0 0 1 12.32-18.61c5.76-6.07 14.66-13.29 26.76-21.77q18.62-13.07 25.41-23a38.41 38.41 0 0 0 6.83-22.41zM530.83 452.27q-25 43.58-39.23 80.64T474 598.32h-20.9q3.75-27.93 17.89-63.73t37.75-77h-78.55v-17.68h100.64zM550.58 479.89q0-19.44 10.36-30.89t28-11.45q16.88 0 26.34 10.54t9.45 29.34q0 18.72-10.43 30.39t-27.7 11.63q-16.4 0-26.18-10.81t-9.84-28.75z m15.73-1q0 13.2 5.72 20.37c3.82 4.77 9.05 7.13 15.66 7.13 6.82 0 12.09-2.45 15.8-7.41s5.59-11.9 5.59-20.9q0-13.2-5.48-20.41t-15.39-7.21c-6.77 0-12.09 2.5-16 7.52s-5.9 11.95-5.9 20.88z m127.45-38.95L592 599.34h-17.1l101.77-159.43z m-48.27 121.24q0-19.39 10.36-31t27.86-11.61q16.78 0 26.3 10.59c6.34 7 9.52 17 9.52 29.81q0 18.62-10.54 30.21t-27.5 11.61q-16.5 0-26.25-11t-9.75-28.61z m15.63-0.91q0 12.88 5.73 20.09c3.82 4.82 9 7.23 15.64 7.23q10.23 0 15.82-7.48t5.56-20.86c0-8.86-1.86-15.66-5.56-20.34s-8.82-7.07-15.3-7.07q-10.43 0-16.16 7.52t-5.73 20.91z" fill="#ACADB5" p-id="16552"></path></svg>