<?xml version="1.0" standalone="no"?><!DOCTYPE svg PUBLIC "-//W3C//DTD SVG 1.1//EN" "http://www.w3.org/Graphics/SVG/1.1/DTD/svg11.dtd"><svg t="1753101033638" class="icon" viewBox="0 0 1098 1024" version="1.1" xmlns="http://www.w3.org/2000/svg" p-id="1529" xmlns:xlink="http://www.w3.org/1999/xlink" width="214.453125" height="200"><path d="M102.191 1023.98c-13.364 0-24.2-10.838-24.2-24.202 0-133.116 62.85-236.142 118.29-326.995 45.54-74.65 88.535-145.143 91.374-221.776 6.327-170.743-137.688-401.812-139.15-404.13-7.1-11.317-3.717-26.268 7.6-33.388 11.339-7.141 26.269-3.717 33.39 7.6 6.264 9.96 153.411 245.957 146.542 431.714-3.3 89.266-49.51 165-98.433 245.183-54.666 89.621-111.212 182.27-111.212 301.792 0 13.385-10.837 24.201-24.2 24.201z m879.65 0c-13.384 0-24.2-10.838-24.2-24.202 0-119.522-56.546-212.17-111.212-301.792-48.924-80.182-95.134-155.917-98.433-245.183C741.106 267.046 888.274 31.05 894.538 21.09c7.12-11.318 22.05-14.742 33.389-7.6 11.296 7.12 14.68 22.07 7.58 33.388-1.462 2.317-145.457 233.407-139.13 404.129 2.84 76.633 45.834 147.127 91.375 221.776 55.439 90.874 118.29 193.88 118.29 326.995 0 13.385-10.837 24.201-24.2 24.201zM504.462 802.578c-185.569 0-315.448-43.182-324.03-46.126-12.654-4.322-19.42-18.062-15.097-30.737 4.322-12.633 18.104-19.42 30.716-15.097 3.967 1.337 327.893 108.268 680.363-21.32 12.528-4.656 26.456 1.797 31.07 14.367 4.615 12.55-1.816 26.456-14.366 31.05-140.361 51.638-274.96 67.863-388.656 67.863z m0.084 116.035c-210.772 0-357.607-50.177-367.317-53.58-12.194-4.281-18.062-16.308-13.134-26.874s18.814-15.682 30.988-11.401c3.654 1.295 370.051 125.89 772.948-24.807 12.07-4.552 26.101 0.314 31.322 10.775 5.199 10.461-0.376 22.614-12.445 27.145-160.199 59.928-313.277 78.742-442.362 78.742z m38.692-321.691c-37.711 0-67.237-36.897-67.237-83.962 0-13.385 10.837-24.201 24.201-24.201s24.201 10.837 24.201 24.2c0 21.696 11.15 35.56 18.835 35.56s18.834-13.864 18.834-35.56c0-13.384 10.838-24.2 24.201-24.2s24.201 10.837 24.201 24.2c0 47.066-29.525 83.963-67.236 83.963zM207.076 478.027H24.201C10.837 478.027 0 467.169 0 453.826c0-13.385 10.837-24.201 24.201-24.201h182.875c13.364 0 24.201 10.837 24.201 24.2 0 13.344-10.837 24.202-24.201 24.202z m5.659-3.53c-5.868 0-11.756-2.15-16.413-6.43l-65.962-60.93c-9.814-9.084-10.44-24.39-1.358-34.204 9.063-9.835 24.368-10.44 34.203-1.357l65.963 60.93c9.814 9.063 10.44 24.368 1.357 34.203a24.172 24.172 0 0 1-17.79 7.789z m-65.942 64.523a24.139 24.139 0 0 1-17.79-7.789c-9.063-9.814-8.457-25.14 1.357-34.203l65.962-60.93c9.835-9.062 25.141-8.457 34.203 1.357 9.083 9.835 8.457 25.14-1.357 34.203l-65.963 60.93a24.118 24.118 0 0 1-16.412 6.432z m926.256-64.439H890.174c-13.364 0-24.2-10.837-24.2-24.2 0-13.364 10.836-24.202 24.2-24.202h182.875c13.364 0 24.201 10.859 24.201 24.201 0 13.364-10.858 24.201-24.2 24.201zM950.48 539.02a24.268 24.268 0 0 1-16.434-6.431l-65.942-60.93c-9.814-9.063-10.44-24.369-1.357-34.204 9.062-9.835 24.368-10.42 34.203-1.357l65.963 60.93c9.814 9.063 10.42 24.39 1.357 34.203a24.24 24.24 0 0 1-17.79 7.789z m-65.964-64.522a24.139 24.139 0 0 1-17.79-7.789c-9.083-9.835-8.457-25.14 1.357-34.203l65.942-60.93c9.835-9.083 25.162-8.457 34.224 1.357 9.062 9.814 8.457 25.12-1.336 34.203l-65.963 60.93c-4.678 4.281-10.566 6.432-16.434 6.432z" p-id="1530"></path></svg>