<?xml version="1.0" standalone="no"?><!DOCTYPE svg PUBLIC "-//W3C//DTD SVG 1.1//EN" "http://www.w3.org/Graphics/SVG/1.1/DTD/svg11.dtd"><svg t="1753101172067" class="icon" viewBox="0 0 1024 1024" version="1.1" xmlns="http://www.w3.org/2000/svg" p-id="4647" xmlns:xlink="http://www.w3.org/1999/xlink" width="200" height="200"><path d="M345.088 621.056c82.944-76.288 170.496-88.576 266.752-27.136-17.408-15.872-35.328-31.744-54.784-49.664C598.528 481.28 655.872 444.416 732.16 440.32c76.8-4.096 137.216 26.624 177.152 92.16 60.416 99.328 33.28 225.792-59.392 278.528-43.008 24.576-91.648 31.744-140.288 29.696-46.08-2.048-87.552 9.216-129.024 27.648-134.656 59.904-270.336 46.592-404.992 1.024-14.336-5.12-28.16-12.8-41.472-20.992-50.688-31.744-59.392-53.248-48.128-111.616C107.52 629.76 145.92 529.408 211.456 440.32 250.88 386.56 288.768 331.776 325.632 276.48c29.696-44.032 67.584-73.728 121.344-79.872 42.496-5.12 84.992-11.776 127.488-13.312 12.288-0.512 28.16 9.728 37.376 19.968 15.36 16.384 26.112 37.376 39.424 55.296 12.288 16.896 11.264 31.232-6.144 41.472-47.104 27.648-94.72 46.592-150.528 22.016-15.872-7.168-37.888-0.512-56.32-2.56-27.648-3.584-30.208 19.456-37.888 35.328-40.448 82.944-65.024 169.472-55.296 266.24z" p-id="4648"></path></svg>