<?xml version="1.0" standalone="no"?><!DOCTYPE svg PUBLIC "-//W3C//DTD SVG 1.1//EN" "http://www.w3.org/Graphics/SVG/1.1/DTD/svg11.dtd"><svg t="1753101202369" class="icon" viewBox="0 0 1024 1024" version="1.1" xmlns="http://www.w3.org/2000/svg" p-id="5683" xmlns:xlink="http://www.w3.org/1999/xlink" width="200" height="200"><path d="M512.019484 1024A377.742222 377.742222 0 0 1 138.543929 640.853333c0-199.111111 308.622222-564.337778 343.893333-605.582222l28.444445-35.271111 28.444444 35.271111c35.271111 41.244444 343.893333 407.04 343.893333 605.582222A379.448889 379.448889 0 0 1 512.019484 1024z" fill="#30CBF9" p-id="5684"></path><path d="M464.801707 884.337778a215.608889 215.608889 0 0 1-216.177778-216.177778 39.253333 39.253333 0 0 1 78.506667 0 136.817778 136.817778 0 0 0 137.671111 137.671111 39.253333 39.253333 0 0 1 0 78.506667z" fill="#FFFFFF" p-id="5685"></path></svg>