<?xml version="1.0" standalone="no"?><!DOCTYPE svg PUBLIC "-//W3C//DTD SVG 1.1//EN" "http://www.w3.org/Graphics/SVG/1.1/DTD/svg11.dtd"><svg t="1758808236551" class="icon" viewBox="0 0 1024 1024" version="1.1" xmlns="http://www.w3.org/2000/svg" p-id="22068" xmlns:xlink="http://www.w3.org/1999/xlink" width="200" height="200"><path d="M204.8 511.75936a305.77664 305.77664 0 0 0 65.9456 190.0544L161.65376 810.9056A460.64128 460.64128 0 0 1 486.4 51.70176v154.00448a307.16416 307.16416 0 0 0-281.6 306.05312z" fill="#3F8CE8" p-id="22069"></path><path d="M512 818.95936a306.08896 306.08896 0 0 0 206.74048-79.97952l108.61056 108.61056a460.36992 460.36992 0 0 1-630.70208 0l108.61056-108.61056A306.08384 306.08384 0 0 0 512 818.95936z" fill="#62B3F0" p-id="22070"></path><path d="M862.34624 810.9056l-109.09184-109.09184a307.02592 307.02592 0 0 0-14.03392-396.8l108.61056-108.61056a460.34432 460.34432 0 0 1 14.5152 614.5024z" fill="#78D98C" p-id="22071"></path><path d="M534.90176 205.49632l-1.81248-154.02496a458.6752 458.6752 0 0 1 278.05696 109.92128L702.0544 270.50496a305.58208 305.58208 0 0 0-167.15264-65.00864z" fill="#F8CA7A" p-id="22072"></path></svg>